<svg height="76" viewBox="-2 -2 353.76 76" width="354" xmlns="http://www.w3.org/2000/svg"><path d="m50 39.84a.85.85 0 0 1 0-1.18l13.1-13.09a8.34 8.34 0 0 0 0-11.8l-4.86-4.77a8.35 8.35 0 0 0 -11.81 0l-13.68 13.64 10.71 10.71a8.34 8.34 0 0 1 0 11.8l-1.78 1.79 1.78-1.79c.12-.11.22-.24.33-.36l11.21 11.21a3.89 3.89 0 0 1 -5.51 5.5l-11.19-11.19-5.55 5.56 13.68 13.68a8.34 8.34 0 0 0 11.8 0l4.82-4.81a8.36 8.36 0 0 0 0-11.8zm-6.16-6.13c-.11-.12-.21-.24-.33-.36l-5.21-5.16 11.15-11.19a3.9 3.9 0 0 1 5.55 5.55z" fill="#f7901e"/><g fill="#003e69"><path d="m43.46 33.35-24.4-24.35a8.34 8.34 0 0 0 -11.8 0l-4.81 4.76a8.35 8.35 0 0 0 0 11.8l13.09 13.1a.83.83 0 0 1 0 1.18l-13.1 13.1a8.35 8.35 0 0 0 0 11.8l4.82 4.82a8.36 8.36 0 0 0 11.8 0l24.4-24.41a8.34 8.34 0 0 0 0-11.8m-7 7.74-20.46 20.37a3.89 3.89 0 0 1 -5.47-5.46l15.8-15.79a1.3 1.3 0 0 0 0-1.83l-15.8-15.83a3.9 3.9 0 0 1 5.47-5.55l20.42 20.42a2.6 2.6 0 0 1 0 3.67"/><path d="m212.42 49.65h14.05v-3.65h-10.16v-8h9.85v-3.69h-9.85v-6.46h10.16v-3.66h-14.05z"/><path d="m244.49 33.58h-4.58l-3.59 4.7-3.55-4.7h-4.43l5.72 7.42-7.1 8.7h4.59l4.77-6 4.62 6h4.5l-6.87-8.7z"/><path d="m247.93 35.53a8.55 8.55 0 0 0 -2.45 6.22 8.36 8.36 0 0 0 2.29 6 7.82 7.82 0 0 0 6.11 2.37 8.75 8.75 0 0 0 4.89-1.26v-4.13a6.3 6.3 0 0 1 -4.62 2.06 4.86 4.86 0 0 1 -3.4-1.3 5.34 5.34 0 0 1 -1.45-3.85 5.17 5.17 0 0 1 1.37-3.71 4.83 4.83 0 0 1 3.56-1.41 6.27 6.27 0 0 1 4.54 2v-4.2a8.58 8.58 0 0 0 -4.39-1.15 8.69 8.69 0 0 0 -6.45 2.37"/><path d="m269.46 33.16a5.78 5.78 0 0 0 -4.31 1.8v-13.14h-3.74v27.83h3.74v-7.75c0-2.06.23-3.28.76-4a3.31 3.31 0 0 1 2.75-1.34 2.83 2.83 0 0 1 2.1.84 3.91 3.91 0 0 1 .73 2.79v9.5h3.74v-9.88a8 8 0 0 0 -1-4.47 5.48 5.48 0 0 0 -4.74-2.18"/><path d="m290.77 35.45a5.87 5.87 0 0 0 -4.77-2.29c-4.23 0-7.82 3.21-7.82 8.44 0 4.43 2.82 8.55 7.79 8.55a6.18 6.18 0 0 0 4.8-2.15v1.68h3.74v-16.1h-3.74zm-4.32 11.34c-2.7 0-4.46-2.33-4.46-5.11s1.75-5.16 4.46-5.16c2.37 0 4.55 1.68 4.55 5.2 0 3.36-2.18 5.07-4.55 5.07"/><path d="m306.39 33.16a5.54 5.54 0 0 0 -4.39 1.91v-1.49h-3.74v16.07h3.74v-7.71c0-5.19 1.72-5.42 3.4-5.42 1.42 0 2.94.12 2.94 4.2v8.93h3.74v-9.84c0-2.49-.38-3.59-1-4.47a5.39 5.39 0 0 0 -4.73-2.18"/><path d="m327.69 35.34a6 6 0 0 0 -4.77-2.18 7.29 7.29 0 0 0 -5.46 2.22 8.5 8.5 0 0 0 -2.37 6.22 9.13 9.13 0 0 0 2.41 6.4 6.8 6.8 0 0 0 5.3 2.17 5.82 5.82 0 0 0 4.89-2.29v2.12a5.31 5.31 0 0 1 -1.22 4 4.05 4.05 0 0 1 -2.94 1.07 3.87 3.87 0 0 1 -2.9-1.11 5.4 5.4 0 0 1 -1.19-2.52h-3.62a9 9 0 0 0 2.36 5 7.16 7.16 0 0 0 5.27 2 8.16 8.16 0 0 0 5.35-1.72c2.21-1.87 2.63-4.58 2.63-8.36v-14.78h-3.74zm-1.18 10.15a4.08 4.08 0 0 1 -3.13 1.3 4.38 4.38 0 0 1 -2.87-1.07 5.91 5.91 0 0 1 0-8.13 4.4 4.4 0 0 1 5.84.08 5.33 5.33 0 0 1 1.53 4 5.32 5.32 0 0 1 -1.41 3.78"/><path d="m349.76 42.06c0-1.68-.19-4.66-2.25-6.8a6.94 6.94 0 0 0 -5.16-2.1 7.31 7.31 0 0 0 -5.35 2.18 9.4 9.4 0 0 0 -2.56 6.6 8.67 8.67 0 0 0 2.37 6.15 7.14 7.14 0 0 0 5.42 2.06 8.82 8.82 0 0 0 4.73-1.22 8.39 8.39 0 0 0 2.68-2.93l-3.13-1.76a5.73 5.73 0 0 1 -1.51 1.76 3.93 3.93 0 0 1 -2.56.8 3.83 3.83 0 0 1 -2.86-1 5.29 5.29 0 0 1 -1.37-3.25h11.53zm-11.26-2.6a4.23 4.23 0 0 1 1.15-2.06 3.7 3.7 0 0 1 6.3 2.06z"/><path d="m82.44 24.21h3.84v25.42h-3.84z"/><path d="m101.62 35.41a6.43 6.43 0 0 0 -5-2.26 6.85 6.85 0 0 0 -5.62 2.61 9.25 9.25 0 0 0 -2 6 8.82 8.82 0 0 0 2.11 6 7.05 7.05 0 0 0 10.45.11v2.24q0 5-4.06 5a4 4 0 0 1 -3.36-1.49 4.2 4.2 0 0 1 -.71-1.83h-3.66a7.1 7.1 0 0 0 2.48 4.93 7.94 7.94 0 0 0 5.28 1.73 7.44 7.44 0 0 0 6-2.5 6.73 6.73 0 0 0 1.55-3.11 12.92 12.92 0 0 0 .21-1.52c0-.58.07-1.25.07-2v-15.72h-3.71zm-1 9.83a4.06 4.06 0 0 1 -3.36 1.54 4 4 0 0 1 -3.26-1.52 5.58 5.58 0 0 1 -1.1-3.59 5.64 5.64 0 0 1 1.1-3.61 4 4 0 0 1 3.33-1.56 4.11 4.11 0 0 1 3.24 1.43 5.38 5.38 0 0 1 1.25 3.73 5.49 5.49 0 0 1 -1.13 3.58"/><path d="m117.09 33.15a6.12 6.12 0 0 0 -4.38 1.93v-1.48h-3.71v16h3.72v-7.69a8.4 8.4 0 0 1 .76-4.19 2.86 2.86 0 0 1 2.62-1.22 2.65 2.65 0 0 1 2.34.92 5.89 5.89 0 0 1 .66 3.27v8.94h3.72v-9.82q0-3.41-1.35-4.89a5.54 5.54 0 0 0 -4.37-1.77"/><path d="m128.32 24.55a2.39 2.39 0 0 0 -2.41 2.38 2.4 2.4 0 0 0 2.38 2.43 2.28 2.28 0 0 0 1.69-.7 2.32 2.32 0 0 0 .71-1.72 2.22 2.22 0 0 0 -.71-1.69 2.26 2.26 0 0 0 -1.7-.7"/><path d="m126.47 33.6h3.7v16.03h-3.7z"/><path d="m138.35 27.72h-3.71v5.88h-1.58v3.46h1.58v12.57h3.71v-12.57h2.88v-3.46h-2.88z"/><path d="m143.41 33.6h3.71v16.03h-3.71z"/><path d="m145.26 24.55a2.41 2.41 0 0 0 -2.41 2.38 2.41 2.41 0 0 0 2.4 2.43 2.3 2.3 0 0 0 1.7-.7 2.36 2.36 0 0 0 .71-1.72 2.41 2.41 0 0 0 -2.42-2.39"/><path d="m158.59 33.15a8.36 8.36 0 0 0 -6.06 2.44 8 8 0 0 0 -2.53 5.92 8.26 8.26 0 0 0 2.44 6.12 8.16 8.16 0 0 0 6 2.47 8.47 8.47 0 0 0 6.16-14.49 8.39 8.39 0 0 0 -6.09-2.45m3.47 12.23a5 5 0 0 1 -6.95 0 5.36 5.36 0 0 1 -1.28-3.8 5.18 5.18 0 0 1 1.31-3.66 5 5 0 0 1 6.92 0 5.28 5.28 0 0 1 1.3 3.74 5.28 5.28 0 0 1 -1.3 3.74"/><path d="m181.75 35.63-1.49-2.05a6.79 6.79 0 0 0 -2.44-.43 6.11 6.11 0 0 0 -4.38 1.93v-1.48h-3.72v16h3.72v-7.69a8.32 8.32 0 0 1 .75-4.2 2.86 2.86 0 0 1 2.62-1.21 2.64 2.64 0 0 1 2.34.92 5.89 5.89 0 0 1 .66 3.27v8.94h3.72v-9.82a13.09 13.09 0 0 0 -.14-2l-1.64-2.2"/></g><path d="m219.51 6.26a3.69 3.69 0 0 0 .48-3.4 4.71 4.71 0 0 0 -2-2.22 4.68 4.68 0 0 0 -3-.6 3.66 3.66 0 0 0 -2.68 2.16c-.14.24-.5 1-1.07 2.24l-2.21 4.75-3 6.46c-1.12 2.39-2.3 4.92-3.5 7.55s-2.43 5.3-3.66 8-2.35 5.14-3.44 7.5a7.82 7.82 0 0 1 1.48.86q3.34-4.92 7.16-10.45t7.16-10.51q3.3-4.91 5.63-8.32c1.55-2.29 2.44-3.62 2.66-4" fill="#f7901e"/><path d="m189.23 38.77c-.71-2.77-1.23-5.08-1.73-6.77s-.82-3.1-1.12-4.12-.52-1.75-.69-2.22a12.63 12.63 0 0 0 -.5-1.2 2.78 2.78 0 0 0 -1.67-1.55 3.51 3.51 0 0 0 -4 1.92 2.83 2.83 0 0 0 .15 2.28q.24.5.63 1.14t1.29 2c.61.86 1.44 2 2.5 3.45s2.48 3.32 4.26 5.67a6.29 6.29 0 0 1 .91-.52" fill="#f7901e"/><path d="m192.39 41a4.67 4.67 0 1 0 4.67 4.67 4.67 4.67 0 0 0 -4.67-4.67z" fill="#f7901e"/></svg>