<?xml version="1.0" encoding="utf-8"?>
<!-- Generator: Adobe Illustrator 25.0.1, SVG Export Plug-In . SVG Version: 6.00 Build 0)  -->
<svg version="1.0" id="katman_1" xmlns="http://www.w3.org/2000/svg" xmlns:xlink="http://www.w3.org/1999/xlink" x="0px" y="0px"
	 viewBox="0 0 560 400" style="enable-background:new 0 0 560 400;" xml:space="preserve">
<style type="text/css">
	.st0{fill:#FFFFFF;}
	.st1{fill:#FFD046;}
</style>
<g transform="matrix(1.81455 0 0 -1.81455 90.9322 1491.38)">
	<path class="st0" d="M222.1,701.5c-4.8,14.4-17.7,25.5-26.8,31.8l8.5,10.6l-2.5,2.1c-1.5,1.3-37.4,30.6-89.2,30.6l-1.2,0
		c-51.8-0.5-87.7-31.2-89.3-32.5l-6.4-5.5l11.1-0.3c-12.1-8.7-26.6-22.1-39.1-41.7l-3.8-6l7,0.9c0.1,0,14.7,1.9,26.3,1.9
		c0.9,0,1.7,0,2.5,0c-2.7-3.5-6.1-8.2-8.2-11.9l-3.7-6.6l7.3,1.8c0.1,0,9.5,2.3,22.8,2.3c19.7,0,51.2-4.8,73-27.7l2.1-2.2l2.4,2
		c0.2,0.1,14,14.2,35.8,20c4.9,1.1,9.7,1.7,14.4,1.7h0.6c0.3,0,0.6,0,0.9,0c2.4-0.2,4.9-0.6,7.4-1.1c22.9-4.9,23.8-18.1,23.8-18.8
		l0.1-6l5,3.4c0.9,0.6,21.7,14.7,21.7,36.4C224.9,691.6,223.9,696.7,222.1,701.5"/>
	<g transform="matrix(.8 0 0 -.8 4.29944 765.949)">
		<path d="M133.3-9.2C69.4-8.6,24.4,30.4,24.4,30.4l16.3,0.5C25.1,40.4,1.5,58.5-17.8,89c0,0,29.9-4,44.6-1.8
			c-0.6,0.8-1.3,1.7-2,2.6c-3.2,4.1-9.4,12.1-12.6,17.8c0,0,75.6-17.5,123.7,32.9c0,0,17.9-18.2,46.5-25.9
			c6.2-1.4,12.8-2.3,19.7-2.2c0.5,0,0.9,0,1.4,0c3.2,0.3,6.4,0.7,9.8,1.5c32.7,7,33,27.4,33,27.4s25.3-16.8,25.3-42.1
			c0-6.2-1.2-12.1-3.3-17.4c-6.4-19.1-25-33.3-36.1-40.4l3.9-4l7.5-9.4C243.6,28.1,198.1-9.8,133.3-9.2L133.3-9.2z M147.6,39
			c2.9,0.2,6.9,0.7,9.6,1.7c0.8,8.5,10,13.3,10,13.3C156,54.2,149.4,43.4,147.6,39z"/>
		<path class="st1" d="M131.5,3.1C90.9,3.5,65.4,19.4,65.4,19.4c13,0.4,23.4,1.2,23.4,1.2c-39,10.8-66.1,39.8-73.3,49
			c40.2-29.1,79.9-41,104-43.2c3.6-0.2,6.8-0.3,9.9-0.4c-1.1-1.1-3.3-2.2-5.8-3.1c-0.1,0-0.2-0.1-0.3-0.1c0,0,0,0,0,0
			c-5.5-1.9-12.4-3.2-15.1-3.7c-0.5-0.1-0.7-0.1-0.7-0.1h0c-0.3-0.1-0.5-0.1-0.5-0.1c6-0.8,11.9-1,17.7-0.6
			c5.5,0.3,10.6,1.1,15.5,2.3c24,5.5,42.8,18.7,50.4,24.6c8.9,1.8,17.9-0.5,26-6.4c-7.3-5.9-25-17.8-25-17.8c13,4,25.3,11.1,29.8,14
			c2.7-2.1,4.6-4.5,4.6-4.5c-13.2-9.3-27.1-15.4-40.6-19.1C165.5,5.1,147.4,2.9,131.5,3.1z M129.9,39.4
			c-44.7,0.4-77.2,26.2-77.2,26.2c43-15.2,76.9-14.2,76.9-14.2c14,13.3,30.7,12.7,40.2,10.8C146,59,140.3,45.5,139,39.7
			C135.9,39.5,132.9,39.4,129.9,39.4z M223.8,47.4c-6.7,5.1-15,10.4-24.8,14.3c-15.1,6.2-25,14.7-33.1,26.3
			c44.2-5.3,70.1,16.7,80.2,27.3c0.3,0.2,0.5,0.4,0.8,0.5c4.2-5.6,10.2-16.8,6.3-33.2c0,0,5,4.7,7.8,11.7
			C260.4,71.2,233.2,53,223.8,47.4z M184.5,96.9c-11.6-0.2-21.2,2-26.5,4.1c-2.2,4-4.7,10.5-6.9,15.1c25.5-16.1,47.3-13.9,71.8-8.9
			C209.7,99.7,196.1,97.1,184.5,96.9z"/>
	</g>
</g>
</svg>
